<svg width="30" height="30" viewBox="0 0 30 30" fill="none" xmlns="http://www.w3.org/2000/svg">
<path d="M11.875 8.125V11.875H8.125V8.125H11.875ZM13.75 6.25H6.25V13.75H13.75V6.25ZM11.875 18.125V21.875H8.125V18.125H11.875ZM13.75 16.25H6.25V23.75H13.75V16.25ZM21.875 8.125V11.875H18.125V8.125H21.875ZM23.75 6.25H16.25V13.75H23.75V6.25ZM16.25 16.25H18.125V18.125H16.25V16.25ZM18.125 18.125H20V20H18.125V18.125ZM20 16.25H21.875V18.125H20V16.25ZM16.25 20H18.125V21.875H16.25V20ZM18.125 21.875H20V23.75H18.125V21.875ZM20 20H21.875V21.875H20V20ZM21.875 18.125H23.75V20H21.875V18.125ZM21.875 21.875H23.75V23.75H21.875V21.875ZM27.5 8.75H25V5H21.25V2.5H27.5V8.75ZM27.5 27.5V21.25H25V25H21.25V27.5H27.5ZM2.5 27.5H8.75V25H5V21.25H2.5V27.5ZM2.5 2.5V8.75H5V5H8.75V2.5H2.5Z" fill="white"/>
</svg>
