<svg width="27" height="27" viewBox="0 0 27 27" fill="none" xmlns="http://www.w3.org/2000/svg">
<g clip-path="url(#clip0_107_67)">
<path d="M17.7188 14.3438C17.7188 15.4626 17.2743 16.5357 16.4831 17.3269C15.6919 18.118 14.6189 18.5625 13.5 18.5625C12.3811 18.5625 11.3081 18.118 10.5169 17.3269C9.72572 16.5357 9.28125 15.4626 9.28125 14.3438C9.28125 13.2249 9.72572 12.1518 10.5169 11.3606C11.3081 10.5695 12.3811 10.125 13.5 10.125C14.6189 10.125 15.6919 10.5695 16.4831 11.3606C17.2743 12.1518 17.7188 13.2249 17.7188 14.3438Z" fill="white"/>
<path d="M3.375 6.75C2.47989 6.75 1.62145 7.10558 0.988515 7.73851C0.355579 8.37145 0 9.22989 0 10.125L0 20.25C0 21.1451 0.355579 22.0035 0.988515 22.6365C1.62145 23.2694 2.47989 23.625 3.375 23.625H23.625C24.5201 23.625 25.3785 23.2694 26.0115 22.6365C26.6444 22.0035 27 21.1451 27 20.25V10.125C27 9.22989 26.6444 8.37145 26.0115 7.73851C25.3785 7.10558 24.5201 6.75 23.625 6.75H21.6472C20.7522 6.74981 19.8939 6.3941 19.2611 5.76113L17.8639 4.36387C17.2311 3.7309 16.3728 3.37519 15.4777 3.375H11.5223C10.6272 3.37519 9.76891 3.7309 9.13612 4.36387L7.73887 5.76113C7.10609 6.3941 6.24778 6.74981 5.35275 6.75H3.375ZM4.21875 10.125C3.99497 10.125 3.78036 10.0361 3.62213 9.87787C3.4639 9.71964 3.375 9.50503 3.375 9.28125C3.375 9.05747 3.4639 8.84286 3.62213 8.68463C3.78036 8.52639 3.99497 8.4375 4.21875 8.4375C4.44253 8.4375 4.65714 8.52639 4.81537 8.68463C4.97361 8.84286 5.0625 9.05747 5.0625 9.28125C5.0625 9.50503 4.97361 9.71964 4.81537 9.87787C4.65714 10.0361 4.44253 10.125 4.21875 10.125ZM19.4062 14.3438C19.4062 15.9102 18.784 17.4125 17.6763 18.5201C16.5687 19.6277 15.0664 20.25 13.5 20.25C11.9336 20.25 10.4313 19.6277 9.32365 18.5201C8.21601 17.4125 7.59375 15.9102 7.59375 14.3438C7.59375 12.7773 8.21601 11.275 9.32365 10.1674C10.4313 9.05976 11.9336 8.4375 13.5 8.4375C15.0664 8.4375 16.5687 9.05976 17.6763 10.1674C18.784 11.275 19.4062 12.7773 19.4062 14.3438Z" fill="white"/>
</g>
<defs>
<clipPath id="clip0_107_67">
<rect width="27" height="27" fill="white"/>
</clipPath>
</defs>
</svg>
