<svg width="29" height="29" viewBox="0 0 29 29" fill="none" xmlns="http://www.w3.org/2000/svg">
<path d="M14.5 29C18.3456 29 22.0338 27.4723 24.753 24.753C27.4723 22.0338 29 18.3456 29 14.5C29 10.6544 27.4723 6.96623 24.753 4.24695C22.0338 1.52767 18.3456 0 14.5 0C10.6544 0 6.96623 1.52767 4.24695 4.24695C1.52767 6.96623 0 10.6544 0 14.5C0 18.3456 1.52767 22.0338 4.24695 24.753C6.96623 27.4723 10.6544 29 14.5 29ZM16.1856 11.9408L14.3731 20.4686C14.2463 21.0848 14.4257 21.4346 14.9241 21.4346C15.2758 21.4346 15.8068 21.3078 16.1675 20.9888L16.008 21.7428C15.4878 22.3699 14.3405 22.8266 13.3527 22.8266C12.0785 22.8266 11.5366 22.0617 11.8882 20.4359L13.2258 14.1502C13.3418 13.6191 13.2367 13.427 12.7056 13.2983L11.8882 13.1515L12.0368 12.4609L16.1874 11.9408H16.1856ZM14.5 9.96875C14.0193 9.96875 13.5583 9.77779 13.2184 9.43788C12.8785 9.09797 12.6875 8.63696 12.6875 8.15625C12.6875 7.67555 12.8785 7.21453 13.2184 6.87462C13.5583 6.53471 14.0193 6.34375 14.5 6.34375C14.9807 6.34375 15.4417 6.53471 15.7816 6.87462C16.1215 7.21453 16.3125 7.67555 16.3125 8.15625C16.3125 8.63696 16.1215 9.09797 15.7816 9.43788C15.4417 9.77779 14.9807 9.96875 14.5 9.96875Z" fill="#0198FC"/>
</svg>
