<svg width="25" height="25" viewBox="0 0 25 25" fill="none" xmlns="http://www.w3.org/2000/svg">
<path d="M4.16671 4.16671H8.34379V2.08337H2.08337V8.33337H4.16671V4.16671ZM4.16671 16.6667H2.08337V22.9167H8.34379V20.8334H4.16671V16.6667ZM20.8334 20.8334H16.6667V22.9167H22.9167V16.6667H20.8334V20.8334ZM16.6667 4.16671H20.8334V8.33337H22.9167V2.08337H16.6667V4.16671Z" fill="#8DCBF2"/>
<path d="M5.20837 11.4584H11.4584V5.20837H5.20837V11.4584ZM7.29171 7.29171H9.37504V9.37504H7.29171V7.29171ZM5.20837 19.7917H11.4584V13.5417H5.20837V19.7917ZM7.29171 15.625H9.37504V17.7084H7.29171V15.625ZM19.7917 5.20837H13.5417V11.4584H19.7917V5.20837ZM17.7084 9.37504H15.625V7.29171H17.7084V9.37504ZM13.5521 13.5417H15.6355V15.625H13.5521V13.5417ZM15.6355 15.625H17.7188V17.7084H15.6355V15.625ZM17.7188 17.7084H19.8021V19.7917H17.7188V17.7084ZM17.7188 13.5417H19.8021V15.625H17.7188V13.5417Z" fill="#8DCBF2"/>
</svg>
