<svg width="25" height="25" viewBox="0 0 25 25" fill="none" xmlns="http://www.w3.org/2000/svg">
<path fill-rule="evenodd" clip-rule="evenodd" d="M12.4992 4.16732C10.8295 4.16732 9.47591 5.5209 9.47591 7.19063C9.47591 8.86036 10.8295 10.2139 12.4992 10.2139C14.169 10.2139 15.5225 8.86036 15.5225 7.19063C15.5225 5.5209 14.169 4.16732 12.4992 4.16732ZM7.39258 7.19063C7.39258 4.37031 9.6789 2.08398 12.4992 2.08398C15.3195 2.08398 17.6059 4.37031 17.6059 7.19063C17.6059 10.011 15.3195 12.2973 12.4992 12.2973C9.6789 12.2973 7.39258 10.011 7.39258 7.19063Z" fill="#0198FC"/>
<path fill-rule="evenodd" clip-rule="evenodd" d="M9.9141 16.0316C6.73963 16.0316 4.16634 18.6049 4.16634 21.7793V21.8742C4.16634 22.4495 3.69997 22.9159 3.12467 22.9159C2.54938 22.9159 2.08301 22.4495 2.08301 21.8742V21.7793C2.08301 17.4543 5.58903 13.9482 9.9141 13.9482H15.0853C19.4103 13.9482 22.9163 17.4543 22.9163 21.7793V21.8742C22.9163 22.4495 22.45 22.9159 21.8747 22.9159C21.2994 22.9159 20.833 22.4495 20.833 21.8742V21.7793C20.833 18.6049 18.2597 16.0316 15.0853 16.0316H9.9141Z" fill="#0198FC"/>
</svg>
