<svg width="25" height="25" viewBox="0 0 25 25" fill="none" xmlns="http://www.w3.org/2000/svg">
<path fill-rule="evenodd" clip-rule="evenodd" d="M12.5001 4.16732C10.8303 4.16732 9.47677 5.5209 9.47677 7.19063C9.47677 8.86036 10.8303 10.2139 12.5001 10.2139C14.1698 10.2139 15.5234 8.86036 15.5234 7.19063C15.5234 5.5209 14.1698 4.16732 12.5001 4.16732ZM7.39343 7.19063C7.39343 4.37031 9.67976 2.08398 12.5001 2.08398C15.3204 2.08398 17.6067 4.37031 17.6067 7.19063C17.6067 10.011 15.3204 12.2973 12.5001 12.2973C9.67976 12.2973 7.39343 10.011 7.39343 7.19063Z" fill="black"/>
<path fill-rule="evenodd" clip-rule="evenodd" d="M9.91446 16.0318C6.73999 16.0318 4.16671 18.6051 4.16671 21.7796V21.8745C4.16671 22.4498 3.70034 22.9162 3.12504 22.9162C2.54974 22.9162 2.08337 22.4498 2.08337 21.8745V21.7796C2.08337 17.4545 5.5894 13.9485 9.91446 13.9485H15.0856C19.4107 13.9485 22.9167 17.4545 22.9167 21.7796V21.8745C22.9167 22.4498 22.4503 22.9162 21.875 22.9162C21.2997 22.9162 20.8334 22.4498 20.8334 21.8745V21.7796C20.8334 18.6051 18.2601 16.0318 15.0856 16.0318H9.91446Z" fill="black"/>
</svg>
